<svg width="512" height="512" viewBox="0 0 512 512" fill="none" xmlns="http://www.w3.org/2000/svg">
<g clip-path="url(#clip0_491_67161)">
<rect width="512" height="512" rx="80" fill="white"/>
<path fill-rule="evenodd" clip-rule="evenodd" d="M111.281 365.911C110.423 366.348 109.377 365.847 109.346 364.901C108.865 349.93 120.724 308.182 136.585 296.499C150.193 248.596 261.675 168.076 334.607 256.749C339.72 262.557 342.874 271.025 345.532 278.16C350.336 291.058 353.518 299.6 363.72 280.192C373.865 260.895 354.777 234.873 334.348 207.023C312.695 177.503 289.534 145.929 298.082 118.134C311.467 74.6047 372.055 64.1143 381.432 108.961C395.661 119.234 417.659 142.632 387.786 174.803C386.948 175.705 385.407 175.133 385.349 173.915C384.64 159.115 379.26 139.098 366.846 133.422C361.18 130.832 357.557 130.132 354.293 129.501C348.589 128.399 343.981 127.509 331.481 117.114C310.643 99.7874 310.643 153.807 356.486 198.653C390.868 232.288 425.25 322.852 342.883 340.327C309.475 347.414 284.438 344.006 259.572 340.62C258.794 340.514 258.016 340.408 257.237 340.303V407.534L278.151 416.638C280.779 417.782 281.962 420.795 280.792 423.366C279.623 425.937 276.544 427.094 273.915 425.95L257.237 418.69V514.904C257.237 517.718 254.905 520 252.028 520C249.151 520 246.819 517.718 246.819 514.904V414.154L190.564 389.665C189.002 388.985 187.88 387.597 187.563 385.953C187.246 384.308 187.775 382.616 188.978 381.426L233.337 337.538C201.747 334.966 166.115 337.94 111.281 365.911ZM246.598 338.915L201.685 383.351L246.819 402.998V338.941C246.745 338.932 246.672 338.923 246.598 338.915Z" fill="#F357BB"/>
</g>
<defs>
<clipPath id="clip0_491_67161">
<rect width="512" height="512" rx="80" fill="white"/>
</clipPath>
</defs>
</svg>
